<svg xmlns="http://www.w3.org/2000/svg" viewBox="0 0 64 64" role="img" aria-label="その痛み、どこから？ icon">
  <defs>
    <linearGradient id="bg" x1="0%" y1="0%" x2="100%" y2="100%">
      <stop offset="0%" stop-color="#f7efe6" />
      <stop offset="100%" stop-color="#eadac6" />
    </linearGradient>
    <linearGradient id="core" x1="0%" y1="0%" x2="100%" y2="100%">
      <stop offset="0%" stop-color="#1f7a6c" />
      <stop offset="100%" stop-color="#d17a3c" />
    </linearGradient>
  </defs>
  <rect width="64" height="64" rx="18" fill="url(#bg)" />
  <path
    d="M20 18c8 0 12 4 12 10 0 4-2 7-6 9 6 1 10 5 10 11 0 8-6 14-15 14S6 56 6 48c0-6 3-10 10-13-4-2-6-5-6-9 0-5 4-8 10-8z"
    fill="#2f241e"
    opacity=".08"
    transform="translate(12 -6)"
  />
  <path
    d="M31 12c-5 2-8 7-8 14 0 9 4 14 11 18 6 4 8 7 8 11 0 4-4 7-10 7-4 0-8-1-11-4l4-6c2 2 4 3 7 3 3 0 4-1 4-3 0-2-1-4-6-7-8-4-13-12-13-22 0-8 4-14 12-18l2 7z"
    fill="url(#core)"
  />
</svg>
